<svg width="288" height="52" viewBox="0 0 288 52" fill="none" xmlns="http://www.w3.org/2000/svg">
<g clip-path="url(#clip0_371_768)">
<path d="M243 51.9939C238.071 44.1014 228.519 36.9087 214.919 31.0426C213.669 30.501 212.389 29.9777 211.089 29.4665C212.114 29.3692 213.138 29.2475 214.163 29.0893C224.358 27.4341 229.862 22.6694 229.862 15.3854C229.862 8.10142 224.015 4 213.007 4H197.714L201.656 8.30223V26.1684C191.448 22.9919 180.109 20.6308 168.083 19.1826V6.78093H184.257L189.561 12.6714V4H160.199L164.141 8.30223V18.7444C156.751 17.9838 149.129 17.5578 141.376 17.4909V6.78093H151.234L156.807 13.0061V4H121.872V13.0061L127.445 6.78093H137.434V17.4848C122.353 17.5822 107.766 19.0183 94.4157 21.6653V6.78093H112.633L117.937 12.6714V4H86.5379L90.4799 8.30223V22.4929C84.2202 23.8742 78.2603 25.5233 72.6753 27.4341L64.1665 4H58.4566L61.2428 9.09939L47.4489 46.8337L45 52H55.1268L50.4351 46.8337L53.0152 39.7505L53.3401 38.8012C56.6074 36.854 60.2495 35.0041 64.279 33.2637C65.972 32.5335 67.7212 31.8337 69.5079 31.1582L71.7069 37.1704L72.6565 39.7505L75.3741 47.1684L73.0626 52H84.4826L79.5222 46.3712L73.4874 29.7282C78.8163 27.9026 84.5013 26.3205 90.4612 24.9878V46.5659L87.8123 51.9939H98.3452L94.4032 47.6917V24.1542C107.722 21.4767 122.316 20.0223 137.422 19.925V46.572L134.773 52H145.306L141.364 47.6978V19.925C149.129 19.998 156.751 20.4239 164.129 21.1907V46.5659L161.48 51.9939H192.947V42.6592L186.969 49.213H168.071V21.6349C180.128 23.1075 191.473 25.4929 201.643 28.7241V46.572L198.994 52H209.527L205.585 47.6978V30.0446C208.465 31.0487 211.239 32.1258 213.894 33.2698C223.053 37.2191 230.281 41.7525 235.397 46.6572L232.867 52H242.988L243 51.9939ZM205.598 6.64706H212.801C221.297 6.64706 225.989 9.89047 225.989 15.7809C225.989 22.8641 219.26 27.3002 208.659 27.3002H205.598V6.64706ZM63.2732 31.0426C60.162 32.3813 57.2696 33.7931 54.5895 35.2657L62.7422 12.6714L68.6708 28.8641C66.8279 29.5578 65.0224 30.2819 63.2732 31.0365V31.0426Z" fill="#EBE4DE"/>
</g>
<path d="M284.875 0L286.94 3.57515L268.376 12.704L267.688 11.5123L284.875 0Z" fill="#ECD768"/>
<path d="M287.641 23.8955L287.641 28.0237L267 26.6477L267 25.2716L287.641 23.8955Z" fill="#ECD768"/>
<path d="M286.94 48.3447L284.876 51.9199L267.688 40.4076L268.376 39.2159L286.94 48.3447Z" fill="#ECD768"/>
<path d="M2.76562 51.9199L0.701514 48.3448L19.2653 39.2159L19.9533 40.4077L2.76562 51.9199Z" fill="#ECD768"/>
<path d="M0 28.0244L5.41351e-07 23.8962L20.6411 25.2723L20.6411 26.6483L0 28.0244Z" fill="#ECD768"/>
<path d="M0.701172 3.5752L2.76528 4.92692e-05L19.953 11.5123L19.2649 12.704L0.701172 3.5752Z" fill="#ECD768"/>
<defs>
<clipPath id="clip0_371_768">
<rect width="198" height="48" fill="white" transform="translate(45 4)"/>
</clipPath>
</defs>
</svg>
