<svg
        width="100%"
        height="100%"
        viewBox="0 0 162 40"
        fill="none"
        xmlns="http://www.w3.org/2000/svg"
      >
        <path
          d="M162 39.9949C157.967 33.4179 150.152 27.4239 139.024 22.5355C138.002 22.0842 136.954 21.6481 135.891 21.2221C136.729 21.141 137.568 21.0396 138.406 20.9077C146.748 19.5284 151.251 15.5578 151.251 9.48783C151.251 3.41785 146.467 0 137.46 0H124.948L128.173 3.58519V18.4736C119.821 15.8266 110.544 13.859 100.704 12.6521V2.31744H113.938L118.277 7.22617V0H94.2538L97.4791 3.58519V12.287C91.4323 11.6531 85.1964 11.2982 78.8532 11.2424V2.31744H86.919L91.4783 7.50507V0H62.8955V7.50507L67.4548 2.31744H75.6279V11.2373C63.2891 11.3185 51.354 12.5152 40.431 14.7211V2.31744H55.3358L59.6753 7.22617V0H33.9855L37.2108 3.58519V15.4108C32.0892 16.5619 27.213 17.9361 22.6434 19.5284L15.6817 0H11.0099L13.2896 4.24949L2.00366 35.6947L0 40H8.28554L4.4469 35.6947L6.5579 29.7921L6.82369 29.001C9.49694 27.3783 12.4769 25.8367 15.7737 24.3864C17.1589 23.7779 18.5901 23.1947 20.0519 22.6318L21.8511 27.642L22.6281 29.7921L24.8515 35.9736L22.9603 40H32.3039L28.2455 35.3093L23.3079 21.4402C27.6679 19.9189 32.3192 18.6004 37.1955 17.4899V35.4716L35.0283 39.9949H43.646L40.4208 36.4097V16.7951C51.3182 14.5639 63.2584 13.3519 75.6177 13.2708V35.4767L73.4505 40H82.0683L78.843 36.4148V13.2708C85.1964 13.3316 91.4323 13.6866 97.4689 14.3256V35.4716L95.3016 39.9949H121.048V32.216L116.156 37.6775H100.694V14.6957C110.559 15.9229 119.841 17.9108 128.163 20.6034V35.4767L125.995 40H134.613L131.388 36.4148V21.7039C133.744 22.5406 136.014 23.4381 138.186 24.3915C145.679 27.6826 151.593 31.4604 155.779 35.5477L153.709 40H161.99L162 39.9949ZM131.398 2.20588H137.292C144.243 2.20588 148.082 4.90872 148.082 9.81744C148.082 15.7201 142.577 19.4168 133.903 19.4168H131.398V2.20588ZM14.9508 22.5355C12.4053 23.6511 10.0387 24.8276 7.84596 26.0548L14.5163 7.22617L19.367 20.7201C17.8592 21.2982 16.382 21.9016 14.9508 22.5304V22.5355Z"
          fill="currentcolor"
        ></path>
      </svg>